<?xml version="1.0" standalone="no"?>
<!DOCTYPE svg PUBLIC "-//W3C//DTD SVG 20010904//EN"
 "http://www.w3.org/TR/2001/REC-SVG-20010904/DTD/svg10.dtd">
<svg version="1.0" xmlns="http://www.w3.org/2000/svg"
 width="840.000000pt" height="309.000000pt" viewBox="0 0 840.000000 309.000000"
 preserveAspectRatio="xMidYMid meet">

<g transform="translate(0.000000,309.000000) scale(0.100000,-0.100000)"
fill="#000000" stroke="none">
<path d="M0 1545 l0 -1545 4200 0 4200 0 0 1545 0 1545 -4200 0 -4200 0 0
-1545z m1734 1009 c25 -9 19 -59 -17 -164 -42 -119 -117 -290 -127 -290 -15 0
-54 108 -91 258 -42 167 -45 188 -26 195 18 8 242 8 261 1z m-584 -484 c118
-40 290 -114 290 -125 0 -20 -187 -79 -417 -130 -15 -4 -26 1 -33 14 -11 21
-14 238 -4 265 9 24 36 20 164 -24z m1045 -135 c0 -167 5 -163 -137 -114 -111
38 -298 119 -298 129 0 24 358 133 415 127 19 -2 20 -9 20 -142z m-549 16 c72
-44 195 -350 304 -762 54 -201 57 -239 23 -255 -30 -14 -537 -17 -648 -4 -104
12 -141 24 -158 51 -12 20 224 742 284 867 56 117 118 150 195 103z m4450
-249 c57 -29 108 -91 130 -160 26 -78 26 -253 1 -336 -48 -156 -236 -241 -382
-172 -117 54 -171 170 -163 349 7 136 33 205 102 272 28 28 67 56 86 62 54 19
177 10 226 -15z m1099 14 c40 -17 68 -67 124 -224 51 -143 125 -417 118 -436
-9 -22 -49 -20 -75 5 -12 11 -35 49 -51 84 -26 58 -33 65 -69 75 -43 11 -165
4 -195 -12 -10 -5 -32 -40 -48 -76 -32 -73 -50 -92 -86 -92 -19 0 -23 5 -23
30 0 39 174 566 199 604 16 24 53 54 69 56 1 0 18 -6 37 -14z m-716 -10 c8 -9
13 -96 17 -257 3 -134 7 -258 10 -276 9 -57 22 -63 155 -63 104 0 121 -2 138
-19 24 -24 17 -59 -14 -67 -46 -11 -363 0 -377 14 -10 10 -14 87 -16 334 -2
177 -1 327 2 335 7 17 70 17 85 -1z m-3721 -25 c105 -47 153 -133 160 -289 10
-214 -57 -328 -218 -376 -85 -25 -266 -17 -284 12 -8 14 -16 637 -7 650 14 23
65 31 181 29 95 -3 124 -7 168 -26z m1343 19 c22 -12 25 -43 5 -59 -7 -6 -33
-14 -57 -17 -86 -11 -108 -22 -119 -62 -5 -20 -12 -131 -15 -247 -7 -261 -11
-292 -35 -305 -23 -12 -41 -12 -60 0 -13 8 -14 46 -11 270 3 278 -1 313 -42
324 -12 3 -44 6 -70 6 -27 0 -57 5 -68 10 -24 13 -25 55 -1 65 53 22 436 34
473 15z m415 -8 c28 -22 57 -80 101 -201 42 -116 112 -358 120 -418 6 -42 5
-43 -23 -43 -41 1 -57 16 -97 96 -20 39 -43 74 -52 78 -28 10 -183 7 -209 -5
-16 -7 -34 -33 -51 -73 -35 -78 -51 -96 -87 -96 -23 0 -28 4 -28 23 0 23 127
425 170 540 41 108 99 145 156 99z m-1172 -21 c40 -35 117 -234 181 -468 45
-165 47 -187 18 -191 -37 -5 -62 16 -97 86 -19 38 -42 74 -51 82 -19 16 -137
20 -197 7 -33 -7 -40 -14 -68 -75 -18 -37 -39 -75 -48 -84 -18 -22 -61 -24
-68 -3 -11 28 162 557 202 618 38 58 83 68 128 28z m2173 2 c19 -24 24 -122
21 -378 -3 -216 -5 -240 -20 -243 -26 -5 -55 31 -62 79 -3 24 -11 114 -16 199
-6 85 -15 159 -19 163 -9 9 -37 -45 -121 -228 -46 -102 -64 -125 -95 -125 -33
0 -48 23 -100 155 -77 194 -96 223 -109 172 -3 -12 -15 -97 -27 -187 -22 -166
-37 -220 -64 -220 -22 0 -37 36 -30 73 3 17 9 141 14 274 6 215 9 245 26 263
26 28 66 25 97 -7 15 -16 62 -95 106 -178 43 -82 83 -150 89 -152 5 -2 45 63
89 143 43 81 95 165 115 186 31 33 41 38 65 32 16 -3 34 -13 41 -21z"/>
<path d="M1537 1681 c-54 -127 -92 -239 -102 -297 -6 -37 -4 -42 17 -48 36 -9
241 -7 258 4 12 8 10 29 -19 157 -34 153 -78 284 -97 290 -6 2 -32 -46 -57
-106z"/>
<path d="M5914 1640 c-45 -14 -91 -65 -111 -124 -13 -37 -18 -81 -18 -161 1
-103 2 -113 30 -164 38 -69 73 -91 147 -91 66 0 105 26 139 91 25 50 42 177
34 251 -8 68 -49 154 -86 181 -31 22 -92 30 -135 17z"/>
<path d="M2528 1619 c-16 -9 -18 -32 -18 -257 0 -180 3 -251 12 -260 18 -18
124 -15 164 4 79 38 119 124 118 259 0 136 -39 213 -126 249 -42 18 -124 21
-150 5z"/>
</g>
</svg>
